<svg width="64" height="64" viewBox="0 0 64 64" fill="none" xmlns="http://www.w3.org/2000/svg">
<path d="M5 18.9925V45.0141C5 46.6041 5.84897 48.0738 7.2268 48.8695L29.7732 61.8803C31.151 62.6753 32.849 62.6753 34.2268 61.8803L56.7732 48.8695C58.151 48.0745 59 46.6048 59 45.0141V18.9925C59 17.4025 58.151 15.9328 56.7732 15.1371L34.2268 2.12625C32.849 1.33125 31.151 1.33125 29.7732 2.12625L7.2268 15.1378C5.84897 15.9328 5 17.4025 5 18.9932V18.9925Z" fill="url(#linGrad)"/>
<path d="M6.57251 19.7526V44.2701C6.57251 45.7682 7.37202 47.153 8.6696 47.9027L29.9026 60.1615C31.2002 60.9105 32.7992 60.9105 34.0968 60.1615L55.3298 47.9027C56.6274 47.1536 57.4269 45.7689 57.4269 44.2701V19.7526C57.4269 18.2545 56.6274 16.8697 55.3298 16.12L34.0968 3.86123C32.7992 3.11218 31.2002 3.11218 29.9026 3.86123L8.6696 16.1207C7.37202 16.8697 6.57251 18.2545 6.57251 19.7532V19.7526Z" fill="black"/>
<path d="M47.3427 38.8904L54.4171 34.7684C54.6681 34.6222 54.8221 34.3535 54.8221 34.0632V32.2289C54.8221 32.0919 54.788 31.9576 54.7225 31.8377L51.7748 26.4436L53.6209 27.5124C54.1648 27.8277 54.8457 27.4351 54.8457 26.806V19.3653C54.8457 19.0736 54.6904 18.8043 54.4381 18.6588L45.9121 13.7346C45.3682 13.4207 44.688 13.8132 44.688 14.441V26.1631L42.1675 24.7082V22.8123C42.1675 22.5214 42.0122 22.252 41.7606 22.1065L34.6436 17.9838C34.3919 17.8377 34.2366 17.569 34.2366 17.278V16.2937C34.2366 15.6672 34.9129 15.2746 35.4568 15.5846L40.9479 18.7145C41.4919 19.0245 42.1682 18.6319 42.1682 18.0054V17.5139C42.1682 17.221 42.0109 16.9503 41.7566 16.8048L34.6488 12.7529C34.3939 12.6074 34.2373 12.3374 34.2373 12.0438V10.8812C34.2373 10.2534 34.9162 9.86086 35.4601 10.1735L40.9453 13.3283C41.4892 13.6409 42.1682 13.2483 42.1682 12.6212V12.0582C42.1682 11.7666 42.0122 11.4966 41.7592 11.3511L33.1881 6.4177C32.6441 6.10445 31.9652 6.497 31.9652 7.12482V18.8508L26.9394 21.7527L30.5922 8.02984C30.779 7.32863 30.0267 6.75127 29.3976 7.11236L29.1 7.28275C28.91 7.39154 28.7717 7.57241 28.7167 7.78474L26.5934 15.9339C26.3856 16.7301 25.2637 16.7537 25.0232 15.9667L23.6869 11.5916C23.5336 11.0903 22.9549 10.8616 22.5001 11.1224L21.4771 11.7096C21.139 11.9036 20.9856 12.3092 21.1101 12.6782L24.6254 23.0882L19.3335 26.1434V25.0988C19.3335 24.471 18.6546 24.0785 18.1106 24.3917L12.6248 27.5465C12.0809 27.8591 11.4019 27.4666 11.4019 26.8394V25.6762C11.4019 25.3832 11.5592 25.1126 11.8141 24.9671L18.9213 20.9151C19.1762 20.7696 19.3329 20.4996 19.3329 20.2061V19.7145C19.3329 19.0887 18.6565 18.6955 18.1126 19.0055L12.6215 22.136C12.0776 22.446 11.4013 22.0535 11.4013 21.4269V20.442C11.4013 20.151 11.5566 19.8817 11.8082 19.7355L18.9252 15.6128C19.1769 15.4666 19.3322 15.1979 19.3322 14.907V14.3467C19.3322 13.7182 18.6513 13.3256 18.1074 13.6402L9.5388 18.6018C9.2865 18.7479 9.13184 19.0166 9.13184 19.3082V44.7158C9.13249 45.0074 9.28781 45.2767 9.54077 45.4222L9.77145 45.5552C10.3154 45.8692 10.9956 45.4766 10.9956 44.8488V42.7353C10.9956 41.8211 12.2683 41.5983 12.5789 42.4581L13.5685 45.1974C13.634 45.3783 13.7612 45.531 13.9283 45.6267C14.3136 45.8488 14.8058 45.7217 15.0351 45.341L15.7986 44.0722C16.2246 43.3638 17.3124 43.6652 17.3138 44.4916L17.3216 49.4499C17.3216 49.7383 17.4743 50.005 17.7227 50.1511L18.1047 50.3766C18.6487 50.6977 19.3355 50.3058 19.3355 49.6741V37.8989L24.569 40.9207L21.1069 51.3668C20.985 51.7351 21.139 52.1381 21.4752 52.3315L22.4942 52.9167C22.951 53.1788 23.5329 52.9462 23.6823 52.4409L24.9727 48.0934C25.2073 47.3037 26.3312 47.3194 26.5436 48.115L28.716 56.2602C28.7724 56.4706 28.9093 56.6495 29.0981 56.7576L29.3877 56.9241C30.0182 57.2858 30.7712 56.7052 30.5818 56.0033L26.8581 42.2425L31.994 45.2079L32.0268 45.1889V56.8979C32.0268 57.5257 32.707 57.9189 33.251 57.6043L34.0524 57.1417C34.3047 56.9962 34.4607 56.7268 34.4607 56.4352V54.5301C34.4607 54.3866 34.4987 54.2457 34.5708 54.1212L35.9673 51.7082C36.2295 51.2554 36.8435 51.163 37.2276 51.5182L39.3122 53.4462C39.5743 53.6887 39.963 53.7326 40.2723 53.555L41.3385 52.9429C41.8038 52.6755 41.889 52.0392 41.5102 51.6591L38.3128 48.4512C38.0657 48.2035 38.0041 47.8253 38.1601 47.5121L42.2481 39.2882L44.5975 37.9317L44.6598 49.7593C44.663 50.3851 45.3407 50.7744 45.8826 50.4624L54.461 45.5251C54.714 45.3796 54.87 45.1096 54.87 44.818V44.2551C54.87 43.6272 54.191 43.2347 53.6471 43.5479L48.1619 46.7027C47.618 47.0153 46.939 46.6228 46.939 45.995V44.8324C46.939 44.5395 47.0963 44.2688 47.3506 44.1233L54.4584 40.0714C54.7133 39.9259 54.87 39.6559 54.87 39.3623V38.8708C54.87 38.2449 54.1937 37.8517 53.6497 38.1617L48.1586 41.2916C47.6147 41.6016 46.9384 41.209 46.9384 40.5825V39.5969C46.9384 39.3066 47.0924 39.0379 47.3434 38.8918L47.3427 38.8904ZM48.2877 17.6162L52.0094 19.7663C52.2617 19.9118 52.417 20.1811 52.417 20.4728V23.2265C52.417 23.855 51.7368 24.2475 51.1929 23.933L47.4712 21.7828C47.2189 21.6373 47.0636 21.368 47.0636 21.0763V18.3226C47.0636 17.6941 47.7438 17.3016 48.2877 17.6162ZM48.2871 24.4317L49.3979 25.072C49.5355 25.1512 49.6463 25.2686 49.7183 25.4101L52.3417 30.5827L47.0642 27.5354V25.1388C47.0642 24.511 47.7438 24.1184 48.2877 24.4317H48.2871ZM13.5954 40.8237L10.7794 32.9596L17.5235 36.8536L15.0633 40.9672C14.7094 41.559 13.8273 41.4725 13.5947 40.8237H13.5954ZM34.4594 46.9302V43.7845L39.1359 41.0845L36.004 47.2978C35.6174 48.0652 34.4594 47.79 34.4594 46.9308V46.9302Z" fill="white"/>
<defs>
<linearGradient id="linGrad" x1="4.87335" y1="47.6572" x2="59.1136" y2="16.3269" gradientUnits="userSpaceOnUse">
<stop stop-color="#3E6CFF"/>
<stop offset="1" stop-color="#FF2C2C"/>
</linearGradient>
</defs>
</svg>
