<?xml version="1.0" standalone="no"?>
<!DOCTYPE svg PUBLIC "-//W3C//DTD SVG 20010904//EN"
 "http://www.w3.org/TR/2001/REC-SVG-20010904/DTD/svg10.dtd">
<svg version="1.0" xmlns="http://www.w3.org/2000/svg"
 width="900.000000pt" height="900.000000pt" viewBox="0 0 900.000000 900.000000"
 preserveAspectRatio="xMidYMid meet">
<g transform="translate(0.000000,900.000000) scale(0.100000,-0.100000)"
fill="#000000" stroke="none">
<path d="M4312 8980 c-40 -10 -92 -28 -115 -38 -24 -11 -277 -154 -563 -319
-285 -165 -931 -538 -1434 -828 -503 -291 -1017 -588 -1143 -660 -125 -72
-252 -152 -282 -177 -126 -106 -217 -248 -255 -402 -20 -78 -20 -117 -20
-2056 0 -1944 0 -1978 20 -2055 48 -189 164 -351 324 -454 33 -21 381 -223
771 -448 391 -226 1061 -613 1490 -860 429 -248 850 -491 936 -540 212 -122
268 -138 464 -138 222 1 206 -6 880 383 2344 1352 2787 1610 2838 1651 120 96
218 250 257 405 20 78 20 112 20 2056 0 1944 0 1978 -20 2056 -39 155 -137
309 -257 405 -32 26 -247 156 -478 289 -1070 618 -2088 1206 -2489 1436 -279
161 -466 263 -515 280 -65 22 -97 27 -216 30 -116 3 -152 1 -213 -16z m788
-823 c239 -138 536 -308 660 -379 124 -71 237 -142 253 -159 25 -27 27 -35 27
-119 0 -84 -2 -92 -27 -120 -20 -22 -40 -33 -70 -37 -48 -6 16 -40 -612 321
-353 202 -368 208 -436 166 -49 -30 -60 -68 -60 -200 0 -90 4 -122 17 -147 15
-26 113 -86 575 -349 307 -174 570 -330 586 -345 25 -27 27 -35 27 -114 0 -78
-2 -87 -27 -115 -38 -42 -94 -50 -151 -21 -23 12 -214 119 -424 240 -211 120
-397 226 -415 235 -42 21 -81 20 -120 -4 -52 -31 -65 -61 -70 -158 -6 -100 7
-159 41 -193 14 -13 267 -163 563 -334 296 -170 553 -324 571 -341 l32 -32 0
-164 c0 -145 2 -167 18 -180 18 -16 367 -218 376 -218 3 0 6 409 6 909 l0 908
23 34 c29 43 63 61 107 56 23 -3 223 -113 570 -314 294 -170 592 -342 662
-382 69 -40 137 -84 150 -98 l23 -25 3 -601 c2 -439 -1 -609 -9 -630 -18 -43
-56 -67 -105 -67 -36 0 -67 14 -189 85 -81 47 -149 85 -151 85 -12 0 14 -49
224 -431 l227 -414 0 -177 c0 -163 -2 -179 -21 -205 -13 -18 -219 -144 -579
-354 -371 -216 -565 -335 -579 -355 -19 -25 -21 -42 -21 -146 0 -102 3 -120
21 -145 29 -39 82 -65 122 -59 17 3 230 118 472 255 497 284 491 282 557 216
l35 -35 -4 -90 c-2 -73 -7 -93 -23 -109 -11 -11 -272 -163 -579 -338 -359
-205 -567 -329 -580 -347 -19 -25 -21 -42 -21 -159 0 -113 3 -136 19 -160 25
-36 65 -57 112 -57 40 0 24 -8 638 344 300 172 320 180 376 151 50 -26 60 -51
60 -147 0 -82 -2 -90 -27 -117 -16 -16 -199 -127 -408 -247 -209 -119 -507
-291 -663 -381 -252 -145 -288 -163 -329 -163 -38 0 -50 5 -77 32 l-33 33 -6
280 c-4 154 -7 571 -7 928 0 356 -3 647 -8 647 -4 0 -87 -46 -184 -103 l-177
-102 -314 -631 c-173 -346 -318 -640 -322 -653 -4 -12 -4 -39 0 -59 6 -31 48
-78 278 -310 l272 -273 0 -53 c0 -39 -5 -60 -19 -75 -24 -26 -184 -119 -226
-131 -57 -16 -88 4 -268 170 -94 87 -181 164 -191 170 -28 15 -87 12 -121 -5
-30 -15 -68 -75 -204 -315 l-76 -134 0 -171 c0 -211 -3 -220 -110 -283 -116
-69 -188 -69 -230 1 -19 31 -20 59 -20 939 l0 906 -384 221 c-211 121 -392
224 -401 227 -14 6 -16 3 -12 -12 7 -23 276 -1017 287 -1059 4 -16 69 -256
144 -533 75 -276 136 -514 136 -528 0 -66 -63 -120 -130 -111 -51 7 -118 51
-135 90 -8 18 -46 151 -85 297 -38 146 -79 299 -90 340 -11 41 -54 203 -96
359 -42 157 -83 295 -92 308 -21 33 -63 53 -112 53 -32 0 -48 -7 -75 -32 -33
-31 -41 -55 -140 -386 -58 -194 -111 -362 -118 -373 -14 -23 -66 -49 -99 -49
-12 0 -70 26 -127 57 -110 61 -141 93 -141 147 0 16 120 391 266 833 146 443
264 806 262 808 -10 11 -776 449 -790 453 -17 4 -18 -44 -18 -907 0 -790 -2
-916 -15 -941 -35 -68 -105 -79 -191 -29 -30 17 -61 43 -68 57 -11 21 -15 116
-18 437 -4 444 -5 447 -60 488 -37 27 -109 27 -146 0 -15 -11 -58 -72 -97
-136 -39 -64 -79 -123 -90 -131 -36 -25 -81 -29 -120 -10 -42 20 -52 38 -106
187 -23 61 -57 156 -76 210 -20 55 -47 112 -60 128 -50 59 -137 56 -192 -7
l-31 -35 0 -197 c0 -177 -2 -200 -20 -229 -36 -60 -106 -73 -177 -33 -80 45
-73 -158 -73 2052 1 1647 3 1977 14 1998 10 16 230 149 692 417 587 340 684
393 719 393 79 0 115 -50 115 -160 0 -49 -5 -81 -17 -100 -11 -20 -78 -64
-212 -142 -832 -483 -936 -545 -955 -571 -17 -23 -22 -46 -24 -128 -5 -117 -1
-137 34 -178 33 -40 84 -54 133 -38 20 7 219 118 443 245 223 128 422 239 441
247 43 18 93 6 128 -31 21 -22 24 -37 27 -109 4 -83 4 -83 -30 -118 -20 -22
-237 -151 -573 -342 -297 -168 -553 -319 -570 -336 -30 -29 -30 -31 -33 -153
-4 -142 7 -184 60 -216 73 -44 30 -65 918 447 82 47 138 56 178 27 40 -28 52
-66 52 -169 0 -52 2 -95 5 -95 9 0 789 451 803 464 10 10 -2 54 -59 221 -308
906 -469 1392 -469 1416 0 54 21 79 117 135 51 30 106 60 122 65 37 13 89 -2
119 -34 13 -14 60 -150 131 -381 77 -251 117 -366 132 -382 47 -50 141 -50
188 0 15 15 34 71 60 167 48 180 131 502 235 904 32 121 63 234 71 252 17 38
105 93 148 93 37 0 80 -23 101 -54 31 -49 51 38 -265 -1151 -76 -286 -148
-554 -159 -595 -82 -304 -116 -441 -111 -444 3 -2 178 96 389 217 l382 221 0
912 0 911 23 34 c25 37 74 59 116 51 14 -3 222 -117 461 -255z"/>
<path d="M6874 6711 c-26 -12 -72 -66 -80 -95 -3 -12 -4 -127 -2 -257 3 -219
4 -236 24 -263 31 -42 629 -386 672 -386 45 0 89 25 112 63 18 29 20 52 20
278 0 239 -1 247 -22 279 -17 24 -101 78 -326 207 -304 176 -348 195 -398 174z"/>
<path d="M6874 5670 c-26 -10 -72 -65 -79 -93 -3 -12 -4 -107 -3 -210 l3 -189
390 -225 c215 -124 398 -228 408 -231 13 -3 -39 108 -184 394 -111 220 -211
409 -222 422 -12 12 -69 49 -127 82 -106 59 -140 69 -186 50z"/>
<path d="M1260 4352 c0 -6 18 -61 41 -124 144 -399 373 -1038 382 -1066 17
-52 69 -92 120 -92 78 0 89 13 295 358 106 176 192 325 192 330 0 8 -982 585
-1022 600 -4 2 -8 -1 -8 -6z"/>
<path d="M5227 2914 l-357 -206 0 -255 c0 -215 3 -260 16 -289 40 -84 168 -90
221 -11 28 42 486 958 481 963 -2 2 -164 -89 -361 -202z"/>
</g>
</svg>
